<?xml version="1.0" encoding="UTF-8" standalone="no"?>
<!-- Created with Inkscape (http://www.inkscape.org/) -->

<svg
   width="67.688461mm"
   height="20.756477mm"
   viewBox="0 0 67.688461 20.756477"
   version="1.1"
   id="svg5"
   xml:space="preserve"
   inkscape:version="1.2.2 (732a01da63, 2022-12-09)"
   sodipodi:docname="logo.svg"
   xmlns:inkscape="http://www.inkscape.org/namespaces/inkscape"
   xmlns:sodipodi="http://sodipodi.sourceforge.net/DTD/sodipodi-0.dtd"
   xmlns="http://www.w3.org/2000/svg"
   xmlns:svg="http://www.w3.org/2000/svg"><sodipodi:namedview
     id="namedview7"
     pagecolor="#ffffff"
     bordercolor="#000000"
     borderopacity="0.25"
     inkscape:showpageshadow="2"
     inkscape:pageopacity="0.0"
     inkscape:pagecheckerboard="0"
     inkscape:deskcolor="#d1d1d1"
     inkscape:document-units="mm"
     showgrid="false"
     inkscape:zoom="2.587745"
     inkscape:cx="143.56129"
     inkscape:cy="10.047358"
     inkscape:window-width="2560"
     inkscape:window-height="1334"
     inkscape:window-x="-11"
     inkscape:window-y="-11"
     inkscape:window-maximized="1"
     inkscape:current-layer="layer1" /><defs
     id="defs2" /><g
     inkscape:label="Layer 1"
     inkscape:groupmode="layer"
     id="layer1"
     transform="translate(-76.068864,-146.20959)"><path
       style="fill:#ec0000;fill-opacity:1;stroke:#081324;stroke-width:0;stroke-dasharray:none"
       id="path1020"
       sodipodi:type="arc"
       sodipodi:cx="109.91309"
       sodipodi:cy="156.58783"
       sodipodi:rx="33.843407"
       sodipodi:ry="10.377986"
       sodipodi:start="6.2314112"
       sodipodi:end="6.2314008"
       sodipodi:open="true"
       sodipodi:arc-type="arc"
       d="m 143.71115,156.05076 a 33.843407,10.377986 0 0 1 -32.04654,10.90115 33.843407,10.377986 0 0 1 -35.549565,-9.82696 33.843407,10.377986 0 0 1 32.046355,-10.9012 33.843407,10.377986 0 0 1 35.54973,9.8269" /><path
       style="fill:#ffffff;fill-opacity:1;stroke:#081324;stroke-width:0;stroke-dasharray:none"
       id="path464"
       sodipodi:type="arc"
       sodipodi:cx="113.18492"
       sodipodi:cy="157.15018"
       sodipodi:rx="29.242512"
       sodipodi:ry="9.099966"
       sodipodi:start="6.2314112"
       sodipodi:end="6.2314008"
       sodipodi:arc-type="arc"
       d="m 142.38825,156.67924 a 29.242512,9.099966 0 0 1 -27.68992,9.55871 29.242512,9.099966 0 0 1 -30.716728,-8.61679 29.242512,9.099966 0 0 1 27.689758,-9.55875 29.242512,9.099966 0 0 1 30.71687,8.61674"
       inkscape:label="path464"
       sodipodi:open="true" /><g
       aria-label="SYBW"
       id="text1124"
       style="font-size:50.8px;font-family:VT323;-inkscape-font-specification:'VT323, Normal';text-align:center;text-anchor:middle;fill:#f00000;stroke:#081324;stroke-width:0"><path
         d="m 98.078254,154.66931 c -0.08819,-2.24014 -1.746251,-3.84528 -4.709586,-3.84528 -2.857502,0 -4.286253,1.49931 -4.286253,3.59834 0,1.48166 0.705556,2.32833 1.957918,2.89278 0.829028,0.37041 1.76389,0.58208 3.21028,0.89958 1.464029,0.3175 1.816807,0.79375 1.816807,1.48167 0,1.04069 -0.829029,1.65805 -2.275419,1.65805 -1.569862,0 -2.575279,-0.74083 -2.610557,-1.94027 h -2.363613 c 0.05292,2.62819 2.063752,3.91583 4.956531,3.91583 2.73403,0 4.674309,-1.14653 4.674309,-3.72181 0,-1.65805 -0.811389,-2.38125 -1.834445,-2.83986 -0.864307,-0.38806 -2.151946,-0.70556 -3.474864,-1.02306 -1.305279,-0.3175 -1.816807,-0.74083 -1.816807,-1.48166 0,-0.88195 0.723195,-1.37584 2.099029,-1.37584 1.481668,0 2.204863,0.58209 2.328335,1.78153 z"
         style="font-size:17.6389px;font-family:Coolvetica;-inkscape-font-specification:'Coolvetica, Normal';fill:#000000"
         id="path1278" /><path
         d="m 103.91673,162.92432 v -4.39209 l 3.91583,-7.32014 h -2.82222 l -2.27542,4.7625 -2.46945,-4.7625 h -2.857498 l 4.056948,7.28486 v 4.42737 z"
         style="font-size:17.6389px;font-family:Coolvetica;-inkscape-font-specification:'Coolvetica, Normal';fill:#000000"
         id="path1280" /><path
         d="m 110.74297,160.93112 v -3.15736 h 3.13972 c 1.09361,0 1.76389,0.45861 1.76389,1.48167 0,0.9525 -0.67028,1.67569 -1.79917,1.67569 z m 2.94569,-7.69056 c 1.14653,0 1.62278,0.37042 1.62278,1.27 0,0.82903 -0.51153,1.27 -1.48167,1.27 h -3.0868 v -2.54 z m -0.0353,9.68376 c 2.94569,0 4.37444,-1.3582 4.37444,-3.49251 0,-1.67569 -0.79375,-2.46944 -1.78153,-2.83986 0.81139,-0.33514 1.42875,-1.18181 1.42875,-2.18722 0,-1.95792 -1.23472,-3.19264 -3.52778,-3.19264 h -5.76792 v 11.71223 z"
         style="font-size:17.6389px;font-family:Coolvetica;-inkscape-font-specification:'Coolvetica, Normal';fill:#000000"
         id="path1282" /><path
         d="m 129.29908,162.92432 3.28084,-11.71223 h -2.50472 l -1.90501,7.58472 -1.78153,-7.58472 h -2.57527 l -1.62278,7.58472 -1.92264,-7.58472 h -2.61056 l 3.31611,11.71223 h 2.29306 l 1.85208,-7.62001 1.81681,7.62001 z"
         style="font-size:17.6389px;font-family:Coolvetica;-inkscape-font-specification:'Coolvetica, Normal';fill:#000000"
         id="path1284" /></g></g></svg>
